<mxfile type="github" version="12.1.7" host="www.draw.io" modified="2019-10-28T14:32:38.758Z" agent="Mozilla/5.0 (Windows NT 10.0; Win64; x64) AppleWebKit/537.36 (KHTML, like Gecko) Chrome/70.0.3538.102 Safari/537.36 Edge/18.18362" etag="H_NwA-s0iKwlsdhT2lYg" pages="1">
  <diagram id="d1b-zNa-3qvsugCY746y" name="Page-1">
    <mxGraphModel grid="1" dx="768" dy="498" gridSize="10" guides="1" tooltips="1" connect="1" arrows="1" fold="1" page="1" pageScale="1" pageWidth="850" pageHeight="1100" math="0" shadow="0">
      <root>
        <mxCell id="0"/>
        <mxCell id="1" parent="0"/>
        <mxCell id="N7pXdMwGA_x66Y3ILJ86-1" value="Actor" style="shape=umlActor;verticalLabelPosition=bottom;labelBackgroundColor=#ffffff;verticalAlign=top;html=1;outlineConnect=0;" parent="1" vertex="1">
          <mxGeometry as="geometry" x="260" y="200" width="30" height="60"/>
        </mxCell>
        <mxCell id="N7pXdMwGA_x66Y3ILJ86-2" value="Actor" style="shape=umlActor;verticalLabelPosition=bottom;labelBackgroundColor=#ffffff;verticalAlign=top;html=1;outlineConnect=0;" parent="1" vertex="1">
          <mxGeometry as="geometry" x="350" y="200" width="30" height="60"/>
        </mxCell>
        <mxCell id="N7pXdMwGA_x66Y3ILJ86-3" value="Actor" style="shape=umlActor;verticalLabelPosition=bottom;labelBackgroundColor=#ffffff;verticalAlign=top;html=1;outlineConnect=0;" parent="1" vertex="1">
          <mxGeometry as="geometry" x="440" y="200" width="30" height="60"/>
        </mxCell>
      </root>
    </mxGraphModel>
  </diagram>
</mxfile>
